<svg width="616" height="58" viewBox="0 0 616 58" fill="none" xmlns="http://www.w3.org/2000/svg">
<path d="M43.5625 0.875V22H51.9375V28.5H43.5625V57.875H35.5625V0.875H43.5625ZM27.625 6.125V12.5625H8.875V37.5C17.125 37.4062 23.9375 37.0312 31.5 35.6875L32.375 42.375C23.5625 43.875 15.8125 44.125 5.75 44.0625H0.9375V6.125H27.625ZM79.9375 1.9375C92.5625 1.9375 100.562 6.125 100.625 13.0625C100.562 19.9375 92.5625 24.125 79.9375 24.0625C67.375 24.125 59.1875 19.9375 59.1875 13.0625C59.1875 6.125 67.375 1.9375 79.9375 1.9375ZM79.9375 8.125C72 8.125 67.4375 9.8125 67.5 13.0625C67.4375 16.25 72 17.875 79.9375 17.875C87.8125 17.875 92.375 16.25 92.375 13.0625C92.375 9.8125 87.8125 8.125 79.9375 8.125ZM99.6875 37.75V57.125H60V37.75H99.6875ZM67.875 44.0625V50.75H91.875V44.0625H67.875ZM105.875 27.375V33.75H54V27.375H105.875ZM126.188 52V6.75H144.188C154.188 6.75 159.188 11.5625 159.188 18.375C159.188 23.6875 155.75 27 151.062 28.0625V28.5C156.188 28.75 161 32.8125 161 39.5C161 46.6875 155.625 52 145.375 52H126.188ZM143.5 44.25C148.938 44.25 151.25 42 151.25 38.625C151.25 34.8125 148.375 32.125 143.75 32.125H135.562V44.25H143.5ZM142.812 25.6875C146.75 25.6875 149.688 23.5 149.688 19.875C149.688 16.625 147.312 14.375 143 14.375H135.562V25.6875H142.812ZM182.125 52.6875C171.75 52.6875 165.375 45.9375 165.375 35.1875C165.375 24.6875 171.812 17.625 181.75 17.625C190.688 17.625 197.688 23.25 197.688 34.8125V37.4375H174.5C174.5 42.5625 177.562 45.75 182.312 45.75C185.438 45.75 187.688 44.375 188.625 42.3125H197.438C196.125 48.5625 190.5 52.6875 182.125 52.6875ZM174.5 31.625H188.938C188.938 27.5 186.062 24.5625 181.938 24.5625C177.688 24.5625 174.656 27.7188 174.5 31.625ZM218.438 52V6.75H236.188C246.5 6.75 252.375 12.5625 252.375 21.5C252.375 27.6875 249.531 32.1875 244.375 34.375L254 52H243.625L235 35.9375H227.812V52H218.438ZM227.812 28.3125H234.438C240 28.3125 242.688 26 242.688 21.5C242.688 16.9375 240 14.4375 234.438 14.4375H227.812V28.3125ZM273.5 52.6875C263.125 52.6875 256.75 45.9375 256.75 35.1875C256.75 24.6875 263.188 17.625 273.125 17.625C282.062 17.625 289.062 23.25 289.062 34.8125V37.4375H265.875C265.875 42.5625 268.938 45.75 273.688 45.75C276.812 45.75 279.062 44.375 280 42.3125H288.812C287.5 48.5625 281.875 52.6875 273.5 52.6875ZM265.875 31.625H280.312C280.312 27.5 277.438 24.5625 273.312 24.5625C269.062 24.5625 266.031 27.7188 265.875 31.625ZM293.25 42.5C293.25 34.9375 299.375 32.4375 305.875 32.0625C308.312 31.9062 312.875 31.6875 314.312 31.625V28.875C314.25 26.0625 312.312 24.375 308.875 24.375C305.75 24.375 303.75 25.8125 303.25 28.125H294.438C295 22.25 300.125 17.625 309.125 17.625C316.5 17.625 323.5 20.9375 323.5 29.125V52H314.75V47.3125H314.5C312.812 50.4375 309.625 52.625 304.562 52.625C298.062 52.625 293.25 49.25 293.25 42.5ZM302.125 42.25C302.125 44.875 304.25 46.25 307.188 46.25C311.375 46.25 314.375 43.4375 314.312 39.875V37.375C312.906 37.4375 308.969 37.6562 307.375 37.8125C304.188 38.125 302.125 39.625 302.125 42.25ZM339.812 6.75V52H330.562V6.75H339.812ZM407.75 0.9375V33.6875H399.812V28.125H387V21.75H399.812V16.3125H387.562C384.031 25.3125 375.969 31.5 363.438 34.9375L360.312 28.625C373.406 25.1875 379.812 18.9375 380.938 11.125H363.375V4.75H389.625C389.625 6.59375 389.5 8.375 389.25 10.0625H399.812V0.9375H407.75ZM388.812 34.375C400.375 34.375 408.125 38.8125 408.188 45.875C408.125 53 400.375 57.5 388.812 57.5C377.125 57.5 369.312 53 369.375 45.875C369.312 38.8125 377.125 34.375 388.812 34.375ZM388.812 40.625C381.625 40.5625 377.312 42.375 377.312 45.875C377.312 49.375 381.625 51.1875 388.812 51.1875C395.875 51.1875 400.188 49.375 400.188 45.875C400.188 42.375 395.875 40.5625 388.812 40.625ZM463.062 0.875V35.25H455.125V24.0625H447.75V17.5625H455.125V0.875H463.062ZM463.062 37.6875V57.125H424.812V37.6875H463.062ZM432.812 43.9375V50.75H455.25V43.9375H432.812ZM448.75 5.8125V12.1875H415.25V5.8125H428.125V0.375H436V5.8125H448.75ZM432.062 14.0625C440.062 14.0625 445.688 18.3125 445.688 24.25C445.688 30.4375 440.062 34.5625 432.062 34.5625C424.125 34.5625 418.375 30.4375 418.375 24.25C418.375 18.3125 424.125 14.0625 432.062 14.0625ZM432.062 20.0625C428.375 20.0625 426 21.5625 426.062 24.25C426 27.125 428.375 28.6875 432.062 28.6875C435.688 28.6875 438.062 27.125 438.062 24.25C438.062 21.5625 435.688 20.0625 432.062 20.0625ZM515.312 0.875V23.125H523.688V29.6875H515.312V57.75H507.438V0.875H515.312ZM503.562 9.375V15.75H470.125V9.375H483V1.75H491V9.375H503.562ZM487 18.9375C495.312 18.9375 501.5 24.5625 501.5 32.5C501.5 40.4375 495.312 46.0625 487 46.0625C478.625 46.0625 472.438 40.4375 472.438 32.5C472.438 24.5625 478.625 18.9375 487 18.9375ZM487 25.375C483 25.4375 480.062 28.125 480.062 32.5C480.062 36.9375 483 39.5625 487 39.5C491 39.5625 493.875 36.9375 493.875 32.5C493.875 28.125 491 25.4375 487 25.375ZM573.562 0.875V57.75H565.5V0.875H573.562ZM556.5 6.8125C556.5 24.0625 550.438 38.375 530.125 48L525.938 41.625C540.625 34.6875 547.094 25.6875 548.375 13.0625H529V6.8125H556.5ZM615.812 37.75L584.812 51.4375V42.625L605.875 34.0625V33.6875L584.812 25.1875V16.375L615.812 30.125V37.75Z" fill="black"/>
</svg>
